<?xml version="1.0" encoding="UTF-8" standalone="no"?>
<!DOCTYPE svg PUBLIC "-//W3C//DTD SVG 1.1//EN"
 "http://www.w3.org/Graphics/SVG/1.1/DTD/svg11.dtd">
<!-- Generated by graphviz version 2.43.0 (0)
 -->
<!-- Title: Entity Relationship Diagram created by erdantic Pages: 1 -->
<svg width="275pt" height="299pt"
 viewBox="0.00 0.00 275.00 299.00" xmlns="http://www.w3.org/2000/svg" xmlns:xlink="http://www.w3.org/1999/xlink">
<g id="graph0" class="graph" transform="scale(1 1) rotate(0) translate(4 295)">
<title>Entity Relationship Diagram created by erdantic</title>
<polygon fill="white" stroke="transparent" points="-4,4 -4,-295 271,-295 271,4 -4,4"/>
<text text-anchor="middle" x="133.5" y="-6.8" font-family="Times New Roman,Times,Liberation Serif,serif" font-size="9.00" fill="#a8a8a8">Created by erdantic v1.0.3 &lt;https://github.com/drivendataorg/erdantic&gt;</text>
<!-- aind_behavior_services.session.AindBehaviorSessionModel -->
<g id="node1" class="node">
<title>aind_behavior_services.session.AindBehaviorSessionModel</title>
<g id="a_node1"><a xlink:title="aind_behavior_services.session.AindBehaviorSessionModel&#10;&#10;Usage docs: https://docs.pydantic.dev/2.8/concepts/models/&#10;&#10;A base class for creating Pydantic models.&#10;&#10;Attributes:&#10; &#160;&#160;&#160;__class_vars__: The names of classvars defined on the model.&#10; &#160;&#160;&#160;__private_attributes__: Metadata about the private attributes of the model.&#10; &#160;&#160;&#160;__signature__: The signature for instantiating the model.&#10;&#10; &#160;&#160;&#160;__pydantic_complete__: Whether model building is completed, or if there are still undefined fields.&#10; &#160;&#160;&#160;__pydantic_core_schema__: The pydantic&#45;core schema used to build the SchemaValidator and SchemaSerializer.&#10; &#160;&#160;&#160;__pydantic_custom_init__: Whether the model has a custom `__init__` function.&#10; &#160;&#160;&#160;__pydantic_decorators__: Metadata containing the decorators defined on the model.&#10; &#160;&#160;&#160;&#160;&#160;&#160;&#160;This replaces `Model.__validators__` and `Model.__root_validators__` from Pydantic V1.&#10; &#160;&#160;&#160;__pydantic_generic_metadata__: Metadata for generic models; contains data used for a similar purpose to&#10; &#160;&#160;&#160;&#160;&#160;&#160;&#160;__args__, __origin__, __parameters__ in typing&#45;module generics. May eventually be replaced by these.&#10; &#160;&#160;&#160;__pydantic_parent_namespace__: Parent namespace of the model, used for automatic rebuilding of models.&#10; &#160;&#160;&#160;__pydantic_post_init__: The name of the post&#45;init method for the model, if defined.&#10; &#160;&#160;&#160;__pydantic_root_model__: Whether the model is a `RootModel`.&#10; &#160;&#160;&#160;__pydantic_serializer__: The pydantic&#45;core SchemaSerializer used to dump instances of the model.&#10; &#160;&#160;&#160;__pydantic_validator__: The pydantic&#45;core SchemaValidator used to validate instances of the model.&#10;&#10; &#160;&#160;&#160;__pydantic_extra__: An instance attribute with the values of extra fields from validation when&#10; &#160;&#160;&#160;&#160;&#160;&#160;&#160;`model_config[&#39;extra&#39;] == &#39;allow&#39;`.&#10; &#160;&#160;&#160;__pydantic_fields_set__: An instance attribute with the names of fields explicitly set.&#10; &#160;&#160;&#160;__pydantic_private__: Instance attribute with the values of private attributes set on the model instance.&#10;">
<polygon fill="none" stroke="black" points="18.5,-269.5 18.5,-290.5 249.5,-290.5 249.5,-269.5 18.5,-269.5"/>
<text text-anchor="start" x="53.5" y="-277.3" font-family="Times New Roman,Times,Liberation Serif,serif" font-weight="bold" font-size="14.00">AindBehaviorSessionModel</text>
<polygon fill="none" stroke="black" points="18.5,-248.5 18.5,-269.5 165.5,-269.5 165.5,-248.5 18.5,-248.5"/>
<text text-anchor="start" x="72" y="-255.3" font-family="Times New Roman,Times,Liberation Serif,serif" font-size="14.00">version</text>
<polygon fill="none" stroke="black" points="165.5,-248.5 165.5,-269.5 249.5,-269.5 249.5,-248.5 165.5,-248.5"/>
<text text-anchor="start" x="168.5" y="-255.3" font-family="Times New Roman,Times,Liberation Serif,serif" font-size="14.00">Literal[&#39;0.2.0&#39;]</text>
<polygon fill="none" stroke="black" points="18.5,-227.5 18.5,-248.5 165.5,-248.5 165.5,-227.5 18.5,-227.5"/>
<text text-anchor="start" x="61" y="-234.3" font-family="Times New Roman,Times,Liberation Serif,serif" font-size="14.00">experiment</text>
<polygon fill="none" stroke="black" points="165.5,-227.5 165.5,-248.5 249.5,-248.5 249.5,-227.5 165.5,-227.5"/>
<text text-anchor="start" x="200.5" y="-234.3" font-family="Times New Roman,Times,Liberation Serif,serif" font-size="14.00">str</text>
<polygon fill="none" stroke="black" points="18.5,-206.5 18.5,-227.5 165.5,-227.5 165.5,-206.5 18.5,-206.5"/>
<text text-anchor="start" x="55.5" y="-213.3" font-family="Times New Roman,Times,Liberation Serif,serif" font-size="14.00">experimenter</text>
<polygon fill="none" stroke="black" points="165.5,-206.5 165.5,-227.5 249.5,-227.5 249.5,-206.5 165.5,-206.5"/>
<text text-anchor="start" x="185.5" y="-213.3" font-family="Times New Roman,Times,Liberation Serif,serif" font-size="14.00">List[str]</text>
<polygon fill="none" stroke="black" points="18.5,-185.5 18.5,-206.5 165.5,-206.5 165.5,-185.5 18.5,-185.5"/>
<text text-anchor="start" x="80.5" y="-192.3" font-family="Times New Roman,Times,Liberation Serif,serif" font-size="14.00">date</text>
<polygon fill="none" stroke="black" points="165.5,-185.5 165.5,-206.5 249.5,-206.5 249.5,-185.5 165.5,-185.5"/>
<text text-anchor="start" x="183.5" y="-192.3" font-family="Times New Roman,Times,Liberation Serif,serif" font-size="14.00">datetime</text>
<polygon fill="none" stroke="black" points="18.5,-164.5 18.5,-185.5 165.5,-185.5 165.5,-164.5 18.5,-164.5"/>
<text text-anchor="start" x="66" y="-171.3" font-family="Times New Roman,Times,Liberation Serif,serif" font-size="14.00">root_path</text>
<polygon fill="none" stroke="black" points="165.5,-164.5 165.5,-185.5 249.5,-185.5 249.5,-164.5 165.5,-164.5"/>
<text text-anchor="start" x="200.5" y="-171.3" font-family="Times New Roman,Times,Liberation Serif,serif" font-size="14.00">str</text>
<polygon fill="none" stroke="black" points="18.5,-143.5 18.5,-164.5 165.5,-164.5 165.5,-143.5 18.5,-143.5"/>
<text text-anchor="start" x="57.5" y="-150.3" font-family="Times New Roman,Times,Liberation Serif,serif" font-size="14.00">remote_path</text>
<polygon fill="none" stroke="black" points="165.5,-143.5 165.5,-164.5 249.5,-164.5 249.5,-143.5 165.5,-143.5"/>
<text text-anchor="start" x="172.5" y="-150.3" font-family="Times New Roman,Times,Liberation Serif,serif" font-size="14.00">Optional[str]</text>
<polygon fill="none" stroke="black" points="18.5,-122.5 18.5,-143.5 165.5,-143.5 165.5,-122.5 18.5,-122.5"/>
<text text-anchor="start" x="72.5" y="-129.3" font-family="Times New Roman,Times,Liberation Serif,serif" font-size="14.00">subject</text>
<polygon fill="none" stroke="black" points="165.5,-122.5 165.5,-143.5 249.5,-143.5 249.5,-122.5 165.5,-122.5"/>
<text text-anchor="start" x="200.5" y="-129.3" font-family="Times New Roman,Times,Liberation Serif,serif" font-size="14.00">str</text>
<polygon fill="none" stroke="black" points="18.5,-101.5 18.5,-122.5 165.5,-122.5 165.5,-101.5 18.5,-101.5"/>
<text text-anchor="start" x="37.5" y="-108.3" font-family="Times New Roman,Times,Liberation Serif,serif" font-size="14.00">experiment_version</text>
<polygon fill="none" stroke="black" points="165.5,-101.5 165.5,-122.5 249.5,-122.5 249.5,-101.5 165.5,-101.5"/>
<text text-anchor="start" x="200.5" y="-108.3" font-family="Times New Roman,Times,Liberation Serif,serif" font-size="14.00">str</text>
<polygon fill="none" stroke="black" points="18.5,-80.5 18.5,-101.5 165.5,-101.5 165.5,-80.5 18.5,-80.5"/>
<text text-anchor="start" x="77.5" y="-87.3" font-family="Times New Roman,Times,Liberation Serif,serif" font-size="14.00">notes</text>
<polygon fill="none" stroke="black" points="165.5,-80.5 165.5,-101.5 249.5,-101.5 249.5,-80.5 165.5,-80.5"/>
<text text-anchor="start" x="172.5" y="-87.3" font-family="Times New Roman,Times,Liberation Serif,serif" font-size="14.00">Optional[str]</text>
<polygon fill="none" stroke="black" points="18.5,-59.5 18.5,-80.5 165.5,-80.5 165.5,-59.5 18.5,-59.5"/>
<text text-anchor="start" x="54.5" y="-66.3" font-family="Times New Roman,Times,Liberation Serif,serif" font-size="14.00">commit_hash</text>
<polygon fill="none" stroke="black" points="165.5,-59.5 165.5,-80.5 249.5,-80.5 249.5,-59.5 165.5,-59.5"/>
<text text-anchor="start" x="172.5" y="-66.3" font-family="Times New Roman,Times,Liberation Serif,serif" font-size="14.00">Optional[str]</text>
<polygon fill="none" stroke="black" points="18.5,-38.5 18.5,-59.5 165.5,-59.5 165.5,-38.5 18.5,-38.5"/>
<text text-anchor="start" x="45" y="-45.3" font-family="Times New Roman,Times,Liberation Serif,serif" font-size="14.00">allow_dirty_repo</text>
<polygon fill="none" stroke="black" points="165.5,-38.5 165.5,-59.5 249.5,-59.5 249.5,-38.5 165.5,-38.5"/>
<text text-anchor="start" x="195" y="-45.3" font-family="Times New Roman,Times,Liberation Serif,serif" font-size="14.00">bool</text>
<polygon fill="none" stroke="black" points="18.5,-17.5 18.5,-38.5 165.5,-38.5 165.5,-17.5 18.5,-17.5"/>
<text text-anchor="start" x="21.5" y="-24.3" font-family="Times New Roman,Times,Liberation Serif,serif" font-size="14.00">skip_hardware_validation</text>
<polygon fill="none" stroke="black" points="165.5,-17.5 165.5,-38.5 249.5,-38.5 249.5,-17.5 165.5,-17.5"/>
<text text-anchor="start" x="195" y="-24.3" font-family="Times New Roman,Times,Liberation Serif,serif" font-size="14.00">bool</text>
</a>
</g>
</g>
</g>
</svg>
